<svg width="1600" height="1066" viewBox="0 0 1600 1066" fill="none" xmlns="http://www.w3.org/2000/svg">
  <rect width="1600" height="1066" rx="72" fill="#F6F2EC"/>
  <rect x="68" y="68" width="1464" height="930" rx="52" fill="#FBF8F4" stroke="#E6DED2" stroke-width="4"/>
  <circle cx="348" cy="300" r="170" fill="#F1E8DB"/>
  <circle cx="348" cy="300" r="118" fill="#E35B10" fill-opacity="0.14"/>
  <circle cx="348" cy="300" r="58" fill="#111111"/>
  <rect x="636" y="166" width="430" height="126" rx="34" fill="#111111"/>
  <rect x="1122" y="198" width="214" height="62" rx="31" fill="#F1E8DB"/>
  <rect x="1122" y="198" width="214" height="62" rx="31" stroke="#E6DED2" stroke-width="4"/>
  <rect x="300" y="498" width="980" height="350" rx="42" fill="#FFFFFF" stroke="#E6DED2" stroke-width="4"/>
  <rect x="368" y="566" width="462" height="102" rx="30" fill="#F6F2EC"/>
  <rect x="770" y="700" width="396" height="98" rx="30" fill="#E35B10"/>
  <rect x="876" y="566" width="292" height="102" rx="30" fill="#111111"/>
  <path d="M444 619H738" stroke="#D6CCBE" stroke-width="14" stroke-linecap="round"/>
  <path d="M798 753H1057" stroke="#F5C3AA" stroke-width="14" stroke-linecap="round"/>
  <path d="M928 619H1100" stroke="#303030" stroke-width="14" stroke-linecap="round"/>
  <path d="M446 736C540 660 624 640 744 640" stroke="#E35B10" stroke-width="10" stroke-linecap="round"/>
  <path d="M742 642C864 642 930 694 1016 749" stroke="#111111" stroke-width="10" stroke-linecap="round"/>
  <circle cx="444" cy="736" r="16" fill="#E35B10"/>
  <circle cx="1016" cy="749" r="16" fill="#111111"/>
  <rect x="1240" y="560" width="146" height="146" rx="36" fill="#F1E8DB"/>
  <path d="M1286 634L1326 594L1360 628" stroke="#E35B10" stroke-width="14" stroke-linecap="round" stroke-linejoin="round"/>
  <path d="M1278 760H1358" stroke="#D6CCBE" stroke-width="12" stroke-linecap="round"/>
  <path d="M300 920H1290" stroke="#E6DED2" stroke-width="4"/>
</svg>
