<svg width="1600" height="1066" viewBox="0 0 1600 1066" fill="none" xmlns="http://www.w3.org/2000/svg">
  <rect width="1600" height="1066" rx="72" fill="#F6F2EC"/>
  <rect x="68" y="68" width="1464" height="930" rx="52" fill="#FBF8F4" stroke="#E6DED2" stroke-width="4"/>
  <rect x="176" y="164" width="1248" height="182" rx="42" fill="#FFFFFF" stroke="#E6DED2" stroke-width="4"/>
  <rect x="232" y="226" width="302" height="58" rx="29" fill="#111111"/>
  <rect x="576" y="226" width="230" height="58" rx="29" fill="#F1E8DB"/>
  <rect x="576" y="226" width="230" height="58" rx="29" stroke="#E6DED2" stroke-width="4"/>
  <rect x="1246" y="214" width="122" height="82" rx="28" fill="#E35B10"/>
  <rect x="176" y="404" width="770" height="470" rx="42" fill="#FFFFFF" stroke="#E6DED2" stroke-width="4"/>
  <rect x="1002" y="404" width="422" height="208" rx="42" fill="#FFFFFF" stroke="#E6DED2" stroke-width="4"/>
  <rect x="1002" y="666" width="422" height="208" rx="42" fill="#FFFFFF" stroke="#E6DED2" stroke-width="4"/>
  <rect x="240" y="470" width="642" height="86" rx="28" fill="#F6F2EC"/>
  <rect x="240" y="588" width="642" height="86" rx="28" fill="#F6F2EC"/>
  <rect x="240" y="706" width="642" height="86" rx="28" fill="#F6F2EC"/>
  <path d="M286 512H464" stroke="#111111" stroke-width="12" stroke-linecap="round"/>
  <path d="M286 630H516" stroke="#111111" stroke-width="12" stroke-linecap="round"/>
  <path d="M286 748H500" stroke="#111111" stroke-width="12" stroke-linecap="round"/>
  <path d="M286 538H446" stroke="#B2A693" stroke-width="10" stroke-linecap="round"/>
  <path d="M286 656H468" stroke="#B2A693" stroke-width="10" stroke-linecap="round"/>
  <path d="M286 774H452" stroke="#B2A693" stroke-width="10" stroke-linecap="round"/>
  <rect x="744" y="488" width="92" height="50" rx="25" fill="#FADFD2"/>
  <rect x="744" y="606" width="92" height="50" rx="25" fill="#F1E8DB"/>
  <rect x="744" y="724" width="92" height="50" rx="25" fill="#FADFD2"/>
  <path d="M1058 474H1204" stroke="#111111" stroke-width="12" stroke-linecap="round"/>
  <path d="M1058 524H1368" stroke="#E6DED2" stroke-width="16" stroke-linecap="round"/>
  <path d="M1058 524H1148" stroke="#E35B10" stroke-width="16" stroke-linecap="round"/>
  <path d="M1058 742H1368" stroke="#E6DED2" stroke-width="16" stroke-linecap="round"/>
  <path d="M1058 742H1286" stroke="#111111" stroke-width="16" stroke-linecap="round"/>
  <path d="M1058 790H1368" stroke="#E6DED2" stroke-width="16" stroke-linecap="round"/>
  <path d="M1058 790H1118" stroke="#B2A693" stroke-width="16" stroke-linecap="round"/>
  <path d="M1058 838H1368" stroke="#E6DED2" stroke-width="16" stroke-linecap="round"/>
  <path d="M1058 838H1332" stroke="#E35B10" stroke-width="16" stroke-linecap="round"/>
</svg>
